<?xml version="1.0" encoding="utf-8"?>
<!-- Generator: Adobe Illustrator 16.0.0, SVG Export Plug-In . SVG Version: 6.00 Build 0)  -->
<!DOCTYPE svg PUBLIC "-//W3C//DTD SVG 1.1//EN" "http://www.w3.org/Graphics/SVG/1.1/DTD/svg11.dtd">
<svg version="1.1" xmlns="http://www.w3.org/2000/svg" xmlns:xlink="http://www.w3.org/1999/xlink" x="0px" y="0px"
	 width="986.667px" height="311.406px" viewBox="6.536 121.721 986.667 311.406"
	 enable-background="new 6.536 121.721 986.667 311.406" xml:space="preserve">
<g id="Ebene_1" xmlns:odm="http://product.corel.com/CGS/11/cddns/" xmlns:corel-charset="http://product.corel.com/CGS/11/cddns/">
	<g id="Symbole_x0020_farbig">
	</g>
	<g id="Leatherman">
	</g>
	<path fill="none" d="M567.734,317.658c-1.78,0.818-3.067,1.78-3.87,2.892c-0.802,1.11-1.199,2.352-1.199,3.724
		c0,1.308,0.212,2.435,0.637,3.38c0.422,0.949,1.003,1.726,1.738,2.33c0.735,0.604,1.601,1.045,2.599,1.323
		c0.997,0.278,2.063,0.416,3.208,0.416c1.537,0,2.942-0.155,4.216-0.467c1.274-0.308,2.474-0.757,3.601-1.345
		c1.128-0.59,2.205-1.29,3.234-2.109c1.028-0.814,2.033-1.747,3.014-2.791v-10.292c-4.02,0.132-7.44,0.449-10.265,0.955
		C571.821,316.181,569.517,316.842,567.734,317.658z"/>
	<path fill="none" d="M790.184,340.689c0,1.112,0.282,2.147,0.854,3.113c0.571,0.963,1.447,1.795,2.622,2.498
		c1.176,0.703,2.653,1.259,4.437,1.666c1.78,0.409,3.879,0.613,6.296,0.613c2.354,0,4.46-0.212,6.323-0.637
		c1.859-0.425,3.436-1.029,4.729-1.813c1.289-0.784,2.278-1.713,2.963-2.793c0.684-1.076,1.029-2.27,1.029-3.577
		c0-1.208-0.346-2.189-1.029-2.94c-0.685-0.75-1.609-1.34-2.771-1.765c-1.16-0.425-2.506-0.727-4.039-0.906
		c-1.538-0.179-3.161-0.317-4.879-0.416c-1.714-0.099-3.455-0.198-5.22-0.293c-1.761-0.099-3.46-0.263-5.097-0.491
		c-1.828,0.85-3.323,1.92-4.483,3.21C790.762,337.447,790.184,338.957,790.184,340.689z"/>
	<path fill="none" d="M322.79,281.665c-2.156-2.368-4.771-4.19-7.839-5.465c-3.073-1.273-6.503-1.911-10.293-1.911
		c-3.757,0-7.168,0.637-10.241,1.911c-3.072,1.274-5.692,3.097-7.866,5.465c-2.172,2.369-3.847,5.268-5.022,8.698
		c-1.174,3.43-1.764,7.3-1.764,11.613c0,4.313,0.59,8.178,1.764,11.59c1.176,3.413,2.851,6.305,5.022,8.673
		c2.174,2.37,4.794,4.181,7.866,5.438c3.072,1.259,6.484,1.887,10.241,1.887c3.79,0,7.22-0.628,10.293-1.887
		c3.068-1.257,5.683-3.068,7.839-5.438c2.155-2.368,3.822-5.261,4.998-8.673c1.178-3.413,1.764-7.278,1.764-11.59
		c0-4.313-0.586-8.183-1.764-11.613C326.613,286.933,324.946,284.034,322.79,281.665z"/>
	<path fill="none" d="M225.638,271.664l-0.188-0.314l-0.409-0.775c-0.428-0.786-0.957-1.482-1.595-2.087l0.036,0.26l0.063,0.539
		c0.009,0.263,0.018,0.478,0.024,0.66l0.006,0.168c-0.117,0.102-0.355,0.497-0.721,1.187c-1.14,2.061-1.334,4.803-0.59,8.231
		c0.176,0.826,0.472,1.675,0.889,2.547c0.334,0.7,0.66,1.192,0.975,1.46c0.732,0.622,1.4,0.789,2.004,0.499
		c0.768-0.368,1.223-1.531,1.352-3.497c0.167-2.407-0.165-4.671-1.012-6.786L225.638,271.664z"/>
	<path fill="none" d="M434.639,296.905c-1.095-1.223-2.425-2.172-3.993-2.842c-1.566-0.669-3.349-1.005-5.341-1.005
		c-4.182,0-7.49,1.217-9.925,3.652c-2.434,2.435-3.944,5.805-4.529,10.118h27.145c0-2.025-0.284-3.879-0.855-5.563
		C436.57,299.585,435.734,298.131,434.639,296.905z"/>
	<path fill="none" d="M381.301,297.886c-1.078-1.487-2.4-2.572-3.969-3.261c-1.569-0.685-3.349-1.029-5.341-1.029
		c-2.845,0-5.336,0.655-7.475,1.962s-4.109,3.152-5.904,5.537v24.011c1.601,2.157,3.348,3.677,5.243,4.559
		c1.894,0.882,4.017,1.322,6.372,1.322c4.638,0,8.197-1.648,10.683-4.948c2.483-3.302,3.723-8.003,3.723-14.114
		c0-3.234-0.286-6.012-0.858-8.33C383.204,301.274,382.378,299.372,381.301,297.886z"/>
	<path fill="none" d="M803.708,292.864c-3.531,0-6.219,0.897-8.061,2.694c-1.85,1.797-2.77,4.214-2.77,7.252
		c0,1.47,0.235,2.818,0.709,4.041c0.474,1.227,1.17,2.28,2.084,3.162c0.912,0.882,2.039,1.567,3.381,2.058
		c1.34,0.491,2.892,0.735,4.656,0.735c1.764,0,3.313-0.245,4.653-0.735s2.467-1.175,3.384-2.058
		c0.911-0.882,1.599-1.935,2.058-3.162c0.458-1.223,0.684-2.571,0.684-4.041c0-3.038-0.923-5.455-2.77-7.252
		C809.872,293.761,807.201,292.864,803.708,292.864z"/>
	<path fill="none" d="M887.551,294.653c-1.894-0.868-4.018-1.302-6.371-1.302c-4.606,0-8.151,1.651-10.634,4.95
		c-2.482,3.302-3.723,8.004-3.723,14.114c0,3.233,0.274,6.003,0.83,8.306c0.557,2.303,1.374,4.199,2.451,5.683
		c1.079,1.489,2.401,2.575,3.971,3.26c1.567,0.685,3.348,1.029,5.339,1.029c2.875,0,5.385-0.652,7.522-1.959
		c2.142-1.307,4.109-3.152,5.907-5.54v-23.96C891.209,297.045,889.443,295.516,887.551,294.653z"/>
	<path fill="none" d="M945.251,296.905c-1.094-1.223-2.426-2.172-3.992-2.842c-1.567-0.669-3.351-1.005-5.343-1.005
		c-4.181,0-7.488,1.217-9.924,3.652c-2.434,2.435-3.945,5.805-4.53,10.118h27.145c0-2.025-0.283-3.879-0.854-5.563
		C947.181,299.585,946.347,298.131,945.251,296.905z"/>
	<path fill="#FFFFFF" d="M149.444,223.764l-20.251-32.614l-20.255-32.61l-3.128,38.264l-3.128,38.26l23.38-5.65L149.444,223.764z
		 M124.233,217.545l-0.514-0.723l-1.29-1.864l-0.817-1.146l-4.133-5.991l0.321,1.095l0.194,0.583l0.825,2.746l0.58,2.336
		l0.706,3.162l0.892,4.675c0.186,0.952-0.126,1.621-0.928,2.003c-0.138,0.063-0.368,0.146-0.687,0.246
		c-1.259,0.388-2.046,0.604-2.348,0.637c-0.985,0.123-1.646-0.165-1.978-0.861c-0.114-0.246-0.251-0.754-0.41-1.538l-0.03-0.149
		l-0.244-1.445l-0.581-2.743l-3.293-18.23c-0.102-0.568,0.087-0.965,0.565-1.193c0.413-0.197,0.867-0.344,1.352-0.449l1.179-0.23
		c1.849-0.374,3.191-0.167,4.025,0.616l0.799,0.745l0.9,0.897c0.861,0.844,1.809,2.043,2.838,3.592l0.093,0.188l2.042,3.206
		l-0.572-1.528l-0.404-1.609l-0.858-3.254l-0.617-3.156l-0.502-2.82c0.045-0.636,0.35-1.091,0.924-1.364
		c0.366-0.17,0.724-0.29,1.08-0.347l0.515-0.09l1.238-0.185c1.134-0.165,1.873,0.129,2.229,0.876
		c0.165,0.344,0.305,0.784,0.418,1.319l0.945,4.17l1.155,5.719l0.481,2.7l0.692,4.25c0.044,0.487,0.158,1.441,0.343,2.844
		c0.105,0.727,0.194,1.169,0.266,1.325c0.013,0.021,0.021,0.045,0.033,0.065l0.114,0.138l0.364,0.437
		c0.123,0.155,0.204,0.266,0.236,0.332c0.254,0.538-0.107,1.05-1.085,1.51c-0.062,0.034-0.141,0.069-0.233,0.114
		c-0.072,0.06-0.177,0.123-0.314,0.188c-0.239,0.114-0.601,0.248-1.095,0.398c-0.248,0.099-0.589,0.171-1.022,0.216l-0.338,0.032
		l-0.73,0.072c-0.769,0.072-1.43-0.161-1.98-0.703C125.405,219.172,124.956,218.568,124.233,217.545z"/>
	<path fill="#FFFFFF" d="M127.194,272.534c-6.793,4.037-11.399,11.384-11.573,19.792c5.247-1.08,10.677-2.278,16.193-3.572
		C130.368,283.313,128.829,277.912,127.194,272.534z"/>
	<path fill="#FFFFFF" d="M159.408,319.503c7.573-3.931,12.769-11.845,12.769-20.937c0-0.124-0.007-0.247-0.009-0.37
		c-5.79,1.322-11.706,2.766-17.61,4.306C156.061,308.183,157.673,313.85,159.408,319.503z"/>
	<path fill="#FFFFFF" d="M167.696,280.341c-4.028-7.255-11.769-12.185-20.627-12.185c-0.098,0-0.194,0.006-0.292,0.007
		c1.095,5.626,2.301,11.24,3.643,16.84C156.245,283.513,162.043,281.946,167.696,280.341z"/>
	<path fill="#FFFFFF" d="M120.784,312.115c3.864,6.968,11.153,11.792,19.569,12.169c-1.102-5.63-2.313-11.228-3.644-16.785
		C131.266,308.995,125.922,310.548,120.784,312.115z"/>
	<path fill="#FFFFFF" d="M206.194,280.496c-0.655-2.725-1.525-5.333-2.504-7.89l-16.108,5.058
		c-6.97,2.324-14.638,4.664-22.604,6.927c-5.652,1.605-11.45,3.173-17.276,4.663c-1.342-5.6-2.548-11.214-3.643-16.84
		c-1.129-5.798-2.14-11.611-3.051-17.438c-4.574,1.848-9.362,2.883-14.259,3.535c1.998,5.711,3.859,11.438,5.61,17.192
		c1.636,5.377,3.175,10.779,4.62,16.22c-5.516,1.293-10.946,2.492-16.193,3.572c-6.447,1.326-12.611,2.468-18.251,3.337
		c2.013,4.57,3.428,9.251,3.592,14.258c5.379-1.883,11.329-3.814,17.591-5.724c5.138-1.567,10.481-3.12,15.925-4.616
		c1.332,5.557,2.542,11.155,3.644,16.785c1.153,5.891,2.188,11.816,3.104,17.77c4.573-1.959,9.251-3.375,14.312-3.592
		c-1.979-5.583-3.821-11.181-5.543-16.791c-1.735-5.653-3.348-11.32-4.851-17.001c5.904-1.541,11.821-2.984,17.61-4.306
		c8.936-2.041,17.563-3.787,25.322-5.106c4.028,28.022-11.1,54.464-35.801,60.614c-26.554,6.64-54.414-12.622-61.979-42.932
		c-7.564-30.308,7.944-60.399,34.498-67.036c20.787-5.226,42.334,5.44,54.36,24.758l14.255-3.538
		c-14.362-23.234-42.66-35.643-70.464-28.731c-34.446,8.599-55.503,43.694-46.907,78.084c8.599,34.444,43.695,55.503,78.142,46.904
		C193.731,350.032,214.79,314.937,206.194,280.496z"/>
	<path fill="#FFFFFF" d="M70.76,309.024l-0.227-3.861l-0.09-1.525l-0.162-1.535c-0.072-0.583-0.162-0.999-0.287-1.262
		c-0.239-0.506-0.916-0.692-2.034-0.565l-0.874,0.093l-1.188,0.291c-0.457,0.104-0.819,0.221-1.08,0.347
		c-0.595,0.281-0.87,0.975-0.819,2.079l0.161,3.907l0.042,1.946l-0.027,0.365l0.234,3.024c0.127,1.792,0.169,3.287,0.122,4.48
		l-0.66-1.653l-0.712-1.672l-0.424-1.041l-1.4-3.029l-0.355-0.834l-1.074-2.174c-0.332-0.7-0.583-1.143-0.748-1.334
		c-0.278-0.347-0.798-0.428-1.558-0.227l-0.602,0.164l-0.745,0.201c-0.392,0.099-0.822,0.264-1.3,0.49
		c-0.808,0.386-1.307,0.984-1.486,1.798c-0.078,0.434-0.093,1.244-0.034,2.428l0.134,2.582l0.11,1.752l0.043,0.508l0.044,0.865
		l0.096,1.394l0.155,1.573l0.179,3.168l-2.666-6.855l-0.825-1.933l-0.284-0.669l-0.562-1.262c-0.024-0.063-0.057-0.126-0.087-0.191
		c-0.291-0.614-0.61-0.999-0.954-1.154c-0.371-0.174-0.939-0.157-1.705,0.047l-0.9,0.227l-0.811,0.224
		c-0.407,0.114-0.763,0.243-1.062,0.386c-1.026,0.487-1.302,1.259-0.829,2.327l6.672,14.614l1.469,2.997l1.278,2.523
		c0.433,0.868,0.986,1.328,1.656,1.388c0.371,0.032,1.13-0.113,2.279-0.446c0.711-0.198,1.157-0.34,1.334-0.425
		c0.87-0.416,1.277-2.094,1.214-5.046l-0.051-2.979l0.051-3.44l-0.03-1.077l-0.006-0.52l-0.104-1.32l0.003-0.406l-0.03-0.58
		l-0.034-0.748l0.733,1.618l1.25,3.063l1.038,2.271l0.395,0.825l0.718,1.427c0.778,1.532,1.418,2.393,1.909,2.579
		c0.472,0.209,1.534,0.042,3.176-0.497c0.09-0.042,0.236-0.099,0.44-0.173c0.188-0.061,0.323-0.111,0.409-0.153
		c0.634-0.299,1.05-0.861,1.248-1.684c0.111-0.449,0.173-1.188,0.194-2.213l0.081-3.895l0.06-1.393l-0.003-2.447l0.033-2.147
		L70.76,309.024z"/>
	<path fill="#FFFFFF" d="M166.612,378.069l-0.833-0.568c-0.705-0.469-1.187-0.778-1.45-0.921c-0.568-0.371-0.963-0.772-1.169-1.212
		c-0.362-0.756-0.063-1.45,0.894-2.069l0.532-0.251c0.03,0.305,0.068,0.499,0.114,0.594c0.209,0.435,0.879,0.383,2.012-0.158
		c0.051-0.024,0.108-0.048,0.174-0.082l1.48-0.751c0.719-0.472,1.146-0.959,1.281-1.45c0.101-0.398,0.048-1.053-0.167-1.965
		l-0.329-1.376l-0.078-0.245c-0.24-0.769-0.398-1.268-0.475-1.499c-0.41-0.855-1.08-1.22-2.007-1.104
		c-0.527,0.072-1.337,0.365-2.435,0.882l-0.455,0.222c-0.592,0.281-1.088,0.529-1.498,0.75c-1.657,0.895-3.03,2.122-4.11,3.683
		c-0.816,1.164-1.298,2.273-1.463,3.338l-0.168,1.085c-0.196,1.331-0.041,2.531,0.467,3.602c0.568,1.2,1.48,2.198,2.743,2.991
		l1.668,1.047l2.95,2.066l0.774,0.784c0.216,0.218,0.383,0.478,0.518,0.762c0.449,0.943,0.062,1.699-1.159,2.28
		c-0.241,0.116-0.436,0.182-0.586,0.2l-0.093-0.431c-0.141-0.475-0.275-0.84-0.403-1.109c-0.194-0.41-0.476-0.583-0.853-0.511
		c-0.529,0.224-0.897,0.376-1.106,0.446l-1.176,0.481l-0.138,0.062c-0.825,0.393-1.297,0.832-1.415,1.31
		c-0.074,0.302,0.003,0.975,0.231,2.017l0.269,1.247l0.439,1.591l0.212,0.703c0.39,0.814,0.757,1.341,1.122,1.598
		c0.466,0.311,1.088,0.353,1.857,0.111l1.235-0.377l0.206-0.06c0.425-0.119,1.032-0.37,1.813-0.739
		c1.687-0.801,3.024-1.705,4.017-2.712c2.56-2.611,2.956-5.785,1.181-9.515C170.491,381.243,168.948,379.661,166.612,378.069z"/>
	<path fill="#FFFFFF" d="M231.698,267.94c-0.745-1.576-1.55-2.928-2.403-4.046c-1.356-1.783-2.542-2.44-3.55-1.962
		c-0.368,0.176-0.723,0.61-1.068,1.304l-0.424,0.885l-0.203,0.497l-0.844,1.857l-0.544-1.314c-0.036-0.072-0.084-0.217-0.167-0.445
		c-0.051-0.165-0.099-0.302-0.156-0.413c-0.287-0.607-0.826-0.727-1.618-0.35c-0.918,0.434-1.941,1.365-3.083,2.792
		c-1.798,2.246-2.674,5.383-2.608,9.385c0.006,0.406-0.005,0.694-0.032,0.861c0.477,3.502,1.22,6.296,2.212,8.393
		c0.969,2.031,2.185,3.547,3.653,4.538c2.2,1.49,4.459,1.875,6.774,1.151c0.491-0.146,0.911-0.306,1.256-0.472
		c2.031-0.963,3.579-3.027,4.652-6.191c0.883-2.59,1.012-5.719,0.39-9.389C233.541,272.594,232.79,270.231,231.698,267.94z
		 M227.484,280.543c-0.129,1.965-0.584,3.129-1.352,3.497c-0.604,0.29-1.272,0.123-2.004-0.499c-0.315-0.269-0.641-0.76-0.975-1.46
		c-0.417-0.873-0.713-1.722-0.889-2.547c-0.744-3.428-0.55-6.17,0.59-8.231c0.365-0.69,0.604-1.085,0.721-1.187l-0.006-0.168
		c-0.006-0.182-0.016-0.397-0.024-0.66l-0.063-0.539l-0.036-0.26c0.638,0.604,1.167,1.301,1.595,2.087l0.409,0.775l0.188,0.314
		l0.834,2.093C227.319,275.872,227.651,278.136,227.484,280.543z"/>
	<path fill="#FFFFFF" d="M329.751,276.127c-3.039-3.183-6.691-5.659-10.954-7.424s-8.977-2.644-14.139-2.644
		c-5.161,0-9.868,0.879-14.111,2.644c-4.247,1.765-7.891,4.241-10.929,7.424c-3.039,3.185-5.389,6.978-7.056,11.371
		c-1.666,4.394-2.5,9.221-2.5,14.479c0,5.261,0.834,10.089,2.5,14.482c1.667,4.394,4.017,8.174,7.056,11.342
		c3.039,3.17,6.682,5.629,10.929,7.375c4.243,1.75,8.95,2.624,14.111,2.624c5.162,0,9.876-0.874,14.139-2.624
		c4.263-1.747,7.915-4.205,10.954-7.375c3.038-3.167,5.389-6.948,7.054-11.342c1.667-4.394,2.501-9.221,2.501-14.482
		c0-5.258-0.834-10.085-2.501-14.479C335.14,283.104,332.789,279.312,329.751,276.127z M327.788,313.567
		c-1.176,3.413-2.843,6.305-4.998,8.673c-2.156,2.37-4.771,4.181-7.839,5.438c-3.073,1.259-6.503,1.887-10.293,1.887
		c-3.757,0-7.168-0.628-10.241-1.887c-3.072-1.257-5.692-3.068-7.866-5.438c-2.172-2.368-3.847-5.261-5.022-8.673
		c-1.174-3.413-1.764-7.278-1.764-11.59c0-4.313,0.59-8.183,1.764-11.613c1.176-3.431,2.851-6.33,5.022-8.698
		c2.174-2.368,4.794-4.19,7.866-5.465c3.072-1.273,6.484-1.911,10.241-1.911c3.79,0,7.22,0.637,10.293,1.911
		c3.068,1.274,5.683,3.097,7.839,5.465c2.155,2.369,3.822,5.268,4.998,8.698c1.178,3.43,1.764,7.3,1.764,11.613
		C329.552,306.289,328.966,310.155,327.788,313.567z"/>
	<path fill="#FFFFFF" d="M388.555,293.034c-1.636-2.138-3.613-3.756-5.932-4.851c-2.319-1.095-4.917-1.642-7.79-1.642
		c-3.529,0-6.664,0.784-9.411,2.354c-2.742,1.567-5.161,3.643-7.252,6.221l-0.783-5.88c-0.294-1.208-1.063-1.812-2.303-1.812h-5.245
		v66.45h8.773V331.92c1.666,1.83,3.584,3.256,5.758,4.285c2.172,1.029,4.776,1.543,7.816,1.543c3.33,0,6.328-0.661,8.992-1.982
		c2.662-1.325,4.915-3.138,6.763-5.441c1.847-2.304,3.257-5.031,4.238-8.184c0.98-3.153,1.469-6.559,1.469-10.217
		c0-4.116-0.439-7.759-1.322-10.929C391.444,297.829,390.189,295.173,388.555,293.034z M380.91,326.039
		c-2.485,3.299-6.045,4.948-10.683,4.948c-2.355,0-4.479-0.44-6.372-1.322c-1.896-0.882-3.643-2.402-5.243-4.559v-24.011
		c1.795-2.384,3.766-4.229,5.904-5.537s4.63-1.962,7.475-1.962c1.992,0,3.771,0.344,5.341,1.029
		c1.568,0.689,2.891,1.774,3.969,3.261c1.077,1.486,1.903,3.388,2.474,5.709c0.572,2.318,0.858,5.096,0.858,8.33
		C384.633,318.035,383.394,322.737,380.91,326.039z"/>
	<path fill="#FFFFFF" d="M439.934,292.444c-1.849-1.878-4.035-3.313-6.569-4.31c-2.53-0.996-5.284-1.496-8.255-1.496
		c-3.594,0-6.831,0.628-9.705,1.888c-2.874,1.256-5.308,2.988-7.301,5.193c-1.992,2.207-3.52,4.812-4.583,7.817
		c-1.062,3.006-1.59,6.24-1.59,9.703c0,4.28,0.587,8.07,1.765,11.369c1.176,3.299,2.816,6.069,4.923,8.307
		c2.108,2.237,4.606,3.936,7.499,5.096c2.892,1.158,6.049,1.738,9.481,1.738c1.797,0,3.608-0.156,5.439-0.463
		c1.831-0.311,3.601-0.778,5.318-1.396c1.712-0.623,3.323-1.415,4.825-2.378c1.504-0.963,2.793-2.1,3.872-3.407l-2.45-3.182
		c-0.391-0.556-0.947-0.835-1.665-0.835c-0.557,0-1.221,0.254-1.985,0.76c-0.771,0.505-1.724,1.053-2.866,1.642
		c-1.146,0.586-2.51,1.134-4.094,1.642c-1.582,0.505-3.471,0.76-5.659,0.76c-2.352,0-4.475-0.386-6.372-1.152
		c-1.893-0.769-3.525-1.929-4.898-3.481c-1.372-1.549-2.443-3.485-3.209-5.805c-0.77-2.321-1.202-5.049-1.301-8.184h33.176
		c0.816,0,1.372-0.229,1.666-0.688c0.295-0.458,0.441-1.369,0.441-2.743c0-3.529-0.523-6.673-1.566-9.434
		C443.224,296.645,441.779,294.326,439.934,292.444z M410.851,306.828c0.585-4.313,2.096-7.683,4.529-10.118
		c2.435-2.435,5.743-3.652,9.925-3.652c1.992,0,3.774,0.335,5.341,1.005c1.568,0.67,2.898,1.619,3.993,2.842
		c1.095,1.227,1.931,2.68,2.501,4.361c0.571,1.684,0.855,3.538,0.855,5.563H410.851z"/>
	<path fill="#FFFFFF" d="M493.639,291.808c-1.388-1.648-3.119-2.922-5.194-3.822c-2.073-0.898-4.466-1.347-7.18-1.347
		c-1.765,0-3.406,0.189-4.925,0.563c-1.518,0.377-2.956,0.916-4.311,1.619c-1.357,0.703-2.638,1.543-3.847,2.524
		c-1.212,0.978-2.354,2.073-3.43,3.281l-0.688-5.389c-0.293-1.208-1.063-1.812-2.304-1.812h-5.243v49.64h8.772v-36.556
		c1.895-2.124,3.961-3.808,6.198-5.049s4.647-1.863,7.229-1.863c3.497,0,6.102,1.039,7.814,3.114
		c1.719,2.076,2.576,4.989,2.576,8.745v31.608h8.769v-31.608c0-2.808-0.358-5.372-1.074-7.692
		C496.08,295.445,495.028,293.459,493.639,291.808z"/>
	<path fill="#FFFFFF" d="M544.531,326.087c-0.587,0-1.184,0.254-1.789,0.76c-0.604,0.505-1.354,1.071-2.252,1.689
		c-0.9,0.623-2.034,1.185-3.406,1.69c-1.374,0.508-3.119,0.76-5.244,0.76c-2.222,0-4.224-0.416-6.002-1.248
		c-1.782-0.834-3.304-2.043-4.559-3.628c-1.26-1.582-2.229-3.544-2.915-5.88c-0.687-2.336-1.029-5.007-1.029-8.012
		c0-2.875,0.319-5.471,0.956-7.792c0.638-2.318,1.582-4.295,2.842-5.928c1.255-1.633,2.817-2.883,4.68-3.75
		c1.861-0.865,4.018-1.298,6.468-1.298c1.829,0,3.372,0.206,4.632,0.612c1.256,0.41,2.319,0.858,3.186,1.349
		c0.865,0.487,1.592,0.939,2.181,1.346c0.587,0.41,1.124,0.613,1.616,0.613c0.457,0,0.815-0.099,1.079-0.293
		c0.26-0.198,0.521-0.476,0.783-0.834l2.304-3.134c-2.058-2.062-4.419-3.652-7.084-4.78c-2.662-1.128-5.738-1.69-9.235-1.69
		c-3.756,0-7.079,0.638-9.971,1.912c-2.893,1.274-5.328,3.045-7.302,5.318c-1.978,2.27-3.481,4.971-4.51,8.108
		c-1.029,3.138-1.544,6.551-1.544,10.242c0,4.052,0.557,7.662,1.666,10.83c1.111,3.17,2.646,5.841,4.605,8.012
		c1.963,2.171,4.271,3.832,6.937,4.974c2.662,1.143,5.545,1.714,8.65,1.714c1.794,0,3.558-0.146,5.29-0.439
		c1.732-0.293,3.39-0.76,4.975-1.397c1.585-0.637,3.063-1.429,4.436-2.378c1.369-0.944,2.596-2.09,3.677-3.43l-2.453-3.182
		C545.805,326.366,545.248,326.087,544.531,326.087z"/>
	<path fill="#FFFFFF" d="M588.979,291.736c-1.472-1.633-3.285-2.908-5.44-3.822c-2.156-0.916-4.623-1.373-7.399-1.373
		c-3.855,0-7.367,0.655-10.534,1.959c-3.171,1.307-6.126,3.284-8.871,5.931l1.565,2.794c0.298,0.457,0.656,0.84,1.081,1.151
		s0.93,0.464,1.52,0.464c0.751,0,1.51-0.27,2.279-0.808c0.765-0.539,1.681-1.142,2.742-1.812s2.32-1.274,3.775-1.813
		c1.453-0.538,3.256-0.811,5.413-0.811c3.201,0,5.636,0.991,7.301,2.967c1.666,1.977,2.5,4.891,2.5,8.746v3.874
		c-5.652,0.128-10.421,0.642-14.308,1.542c-3.889,0.898-7.041,2.05-9.459,3.455c-2.418,1.403-4.165,3.012-5.242,4.825
		c-1.079,1.815-1.618,3.699-1.618,5.661c0,2.256,0.368,4.206,1.104,5.856c0.732,1.649,1.729,3.012,2.988,4.092
		c1.256,1.077,2.735,1.887,4.435,2.426c1.698,0.538,3.511,0.808,5.438,0.808c1.897,0,3.62-0.17,5.171-0.514
		c1.553-0.344,3.016-0.832,4.386-1.469c1.372-0.636,2.68-1.423,3.921-2.354c1.241-0.93,2.516-2,3.822-3.209l0.981,4.704
		c0.26,0.816,0.618,1.365,1.076,1.643s1.109,0.416,1.959,0.416h3.874v-31.754c0-2.776-0.377-5.324-1.128-7.646
		C591.56,295.345,590.448,293.369,588.979,291.736z M584.91,325.01c-0.98,1.043-1.985,1.977-3.014,2.791
		c-1.029,0.819-2.106,1.519-3.234,2.109c-1.127,0.588-2.326,1.037-3.601,1.345c-1.273,0.312-2.679,0.467-4.216,0.467
		c-1.145,0-2.211-0.138-3.208-0.416c-0.998-0.278-1.863-0.718-2.599-1.323c-0.735-0.604-1.316-1.381-1.738-2.33
		c-0.425-0.945-0.637-2.072-0.637-3.38c0-1.373,0.397-2.614,1.199-3.724c0.803-1.112,2.09-2.074,3.87-2.892
		c1.783-0.816,4.087-1.477,6.912-1.985c2.824-0.506,6.245-0.823,10.265-0.955V325.01z"/>
	<path fill="#FFFFFF" d="M640.037,326.087c-0.586,0-1.185,0.254-1.789,0.76c-0.604,0.505-1.354,1.071-2.252,1.689
		c-0.9,0.623-2.033,1.185-3.407,1.69c-1.373,0.508-3.119,0.76-5.243,0.76c-2.222,0-4.222-0.416-6.002-1.248
		c-1.783-0.834-3.302-2.043-4.559-3.628c-1.259-1.582-2.229-3.544-2.916-5.88c-0.685-2.336-1.029-5.007-1.029-8.012
		c0-2.875,0.319-5.471,0.959-7.792c0.636-2.318,1.581-4.295,2.84-5.928c1.257-1.633,2.816-2.883,4.681-3.75
		c1.861-0.865,4.017-1.298,6.467-1.298c1.83,0,3.374,0.206,4.634,0.612c1.255,0.41,2.316,0.858,3.186,1.349
		c0.863,0.487,1.589,0.939,2.18,1.346c0.585,0.41,1.124,0.613,1.614,0.613c0.457,0,0.817-0.099,1.08-0.293
		c0.262-0.198,0.521-0.476,0.784-0.834l2.303-3.134c-2.058-2.062-4.417-3.652-7.082-4.78c-2.662-1.128-5.74-1.69-9.237-1.69
		c-3.756,0-7.079,0.638-9.972,1.912c-2.892,1.274-5.326,3.045-7.302,5.318c-1.976,2.27-3.48,4.971-4.51,8.108
		c-1.029,3.138-1.543,6.551-1.543,10.242c0,4.052,0.557,7.662,1.665,10.83c1.114,3.17,2.648,5.841,4.607,8.012
		c1.962,2.171,4.271,3.832,6.935,4.974c2.662,1.143,5.546,1.714,8.651,1.714c1.795,0,3.56-0.146,5.291-0.439
		c1.731-0.293,3.389-0.76,4.974-1.397c1.586-0.637,3.062-1.429,4.436-2.378c1.37-0.944,2.595-2.09,3.676-3.43l-2.453-3.182
		C641.311,326.366,640.755,326.087,640.037,326.087z"/>
	<path fill="#FFFFFF" d="M690.635,291.808c-1.389-1.648-3.119-2.922-5.195-3.822c-2.073-0.898-4.465-1.347-7.178-1.347
		c-3.364,0-6.338,0.67-8.919,2.01c-2.582,1.34-4.934,3.135-7.056,5.39V264.88h-8.773v72.184h8.773v-36.556
		c1.892-2.124,3.96-3.808,6.196-5.049c2.237-1.241,4.648-1.863,7.229-1.863c3.498,0,6.104,1.039,7.816,3.114
		c1.717,2.076,2.575,4.989,2.575,8.745v31.608h8.77v-31.608c0-2.808-0.359-5.372-1.076-7.692
		C693.075,295.445,692.023,293.459,690.635,291.808z"/>
	<path fill="#FFFFFF" d="M717.389,267.405c-0.571-0.571-1.241-1.02-2.009-1.346s-1.576-0.49-2.426-0.49s-1.64,0.164-2.375,0.49
		c-0.736,0.326-1.382,0.774-1.936,1.346c-0.557,0.571-1,1.241-1.326,2.01c-0.326,0.768-0.49,1.576-0.49,2.425
		c0,0.85,0.164,1.642,0.49,2.378c0.326,0.733,0.77,1.388,1.326,1.958c0.554,0.572,1.199,1.021,1.936,1.347
		c0.735,0.329,1.525,0.49,2.375,0.49s1.658-0.161,2.426-0.49c0.768-0.326,1.438-0.775,2.009-1.347
		c0.572-0.57,1.029-1.226,1.372-1.958c0.346-0.736,0.515-1.528,0.515-2.378c0-0.849-0.169-1.657-0.515-2.425
		C718.418,268.646,717.961,267.976,717.389,267.405z"/>
	<rect x="708.692" y="287.424" fill="#FFFFFF" width="8.721" height="49.64"/>
	<path fill="#FFFFFF" d="M768.843,291.808c-1.39-1.648-3.121-2.922-5.196-3.822c-2.073-0.898-4.465-1.347-7.178-1.347
		c-1.767,0-3.406,0.189-4.927,0.563c-1.516,0.377-2.953,0.916-4.311,1.619c-1.356,0.703-2.637,1.543-3.845,2.524
		c-1.212,0.978-2.354,2.073-3.432,3.281l-0.688-5.389c-0.294-1.208-1.062-1.812-2.304-1.812h-5.241v49.64h8.771v-36.556
		c1.893-2.124,3.96-3.808,6.196-5.049c2.237-1.241,4.649-1.863,7.229-1.863c3.496,0,6.103,1.039,7.815,3.114
		c1.717,2.076,2.576,4.989,2.576,8.745v31.608h8.77v-31.608c0-2.808-0.358-5.372-1.077-7.692
		C771.282,295.445,770.231,293.459,768.843,291.808z"/>
	<path fill="#FFFFFF" d="M809.735,287.3c-1.863-0.472-3.87-0.711-6.026-0.711c-2.745,0-5.271,0.376-7.574,1.127
		c-2.303,0.754-4.284,1.821-5.95,3.209c-1.668,1.391-2.968,3.072-3.898,5.048c-0.93,1.978-1.396,4.173-1.396,6.592
		c0,3.006,0.688,5.644,2.058,7.914c1.372,2.27,3.284,4.092,5.733,5.462c-1.045,0.523-1.959,1.127-2.742,1.815
		c-0.783,0.686-1.447,1.412-1.986,2.181c-0.538,0.769-0.939,1.535-1.199,2.303c-0.263,0.769-0.393,1.51-0.393,2.229
		c0,1.863,0.432,3.34,1.299,4.436c0.864,1.094,2.033,1.967,3.503,2.622c-2.678,1.012-4.786,2.37-6.32,4.065
		c-1.537,1.699-2.304,3.774-2.304,6.225c0,1.731,0.45,3.388,1.348,4.973c0.898,1.584,2.245,2.982,4.043,4.19
		c1.796,1.208,4.049,2.171,6.762,2.893c2.714,0.717,5.881,1.077,9.508,1.077c3.626,0,6.883-0.464,9.775-1.397
		c2.893-0.93,5.334-2.171,7.327-3.724c1.992-1.552,3.519-3.326,4.58-5.318s1.594-4.05,1.594-6.174c0-2.285-0.481-4.148-1.444-5.586
		c-0.968-1.437-2.23-2.563-3.799-3.38c-1.567-0.816-3.355-1.406-5.365-1.765c-2.011-0.359-4.068-0.614-6.177-0.76
		c-2.106-0.146-4.163-0.254-6.173-0.32c-2.01-0.063-3.799-0.228-5.367-0.488c-1.566-0.263-2.835-0.694-3.798-1.3
		c-0.964-0.604-1.443-1.493-1.443-2.671c0-0.75,0.277-1.492,0.83-2.228c0.557-0.736,1.358-1.43,2.403-2.082
		c2.058,0.556,4.247,0.832,6.567,0.832c2.678,0,5.159-0.374,7.446-1.127c2.285-0.751,4.247-1.828,5.88-3.233
		c1.633-1.402,2.918-3.095,3.848-5.072c0.933-1.975,1.396-4.173,1.396-6.589c0-2.614-0.557-5.001-1.665-7.154l5.634-0.736
		c1.373-0.292,2.059-0.981,2.059-2.058v-3.236h-13.474C813.294,288.47,811.599,287.776,809.735,287.3z M796.404,332.948
		c1.637,0.228,3.336,0.392,5.097,0.491c1.765,0.095,3.506,0.194,5.22,0.293c1.718,0.099,3.341,0.237,4.879,0.416
		c1.533,0.179,2.879,0.481,4.039,0.906c1.161,0.425,2.086,1.014,2.771,1.765c0.684,0.751,1.029,1.732,1.029,2.94
		c0,1.307-0.346,2.5-1.029,3.577c-0.685,1.08-1.674,2.01-2.963,2.793c-1.294,0.784-2.87,1.388-4.729,1.813
		c-1.863,0.425-3.969,0.637-6.323,0.637c-2.417,0-4.516-0.204-6.296-0.613c-1.783-0.407-3.261-0.963-4.437-1.666
		c-1.175-0.703-2.051-1.535-2.622-2.498c-0.572-0.966-0.854-2.001-0.854-3.113c0-1.731,0.578-3.242,1.736-4.531
		C793.08,334.868,794.575,333.798,796.404,332.948z M813.803,306.852c-0.459,1.227-1.146,2.28-2.058,3.162
		c-0.917,0.882-2.044,1.567-3.384,2.058s-2.89,0.735-4.653,0.735c-1.765,0-3.316-0.245-4.656-0.735
		c-1.342-0.491-2.469-1.175-3.381-2.058c-0.914-0.882-1.61-1.935-2.084-3.162c-0.474-1.223-0.709-2.571-0.709-4.041
		c0-3.038,0.92-5.455,2.77-7.252c1.842-1.797,4.529-2.694,8.061-2.694c3.493,0,6.164,0.897,8.009,2.694
		c1.847,1.797,2.77,4.214,2.77,7.252C814.487,304.281,814.261,305.629,813.803,306.852z"/>
	<path fill="#FFFFFF" d="M846.341,327.313c-0.553-0.556-1.208-0.996-1.958-1.325c-0.751-0.326-1.554-0.49-2.403-0.49
		s-1.648,0.164-2.4,0.49c-0.751,0.329-1.398,0.769-1.936,1.325c-0.538,0.553-0.963,1.208-1.275,1.959
		c-0.31,0.751-0.464,1.552-0.464,2.401c0,0.882,0.154,1.69,0.464,2.425c0.313,0.736,0.737,1.379,1.275,1.935
		c0.537,0.557,1.185,0.988,1.936,1.299c0.752,0.311,1.551,0.467,2.4,0.467s1.652-0.156,2.403-0.467
		c0.75-0.311,1.405-0.742,1.958-1.299c0.557-0.556,0.995-1.199,1.324-1.935c0.326-0.735,0.491-1.543,0.491-2.425
		c0-0.85-0.165-1.65-0.491-2.401C847.336,328.522,846.898,327.866,846.341,327.313z"/>
	<path fill="#FFFFFF" d="M892.844,292.373c-1.699-1.831-3.636-3.261-5.808-4.29c-2.171-1.029-4.777-1.543-7.817-1.543
		c-3.331,0-6.331,0.661-8.992,1.986c-2.663,1.322-4.909,3.144-6.736,5.461c-1.829,2.321-3.235,5.059-4.213,8.211
		c-0.98,3.153-1.473,6.559-1.473,10.217c0,4.116,0.44,7.759,1.322,10.926c0.882,3.17,2.142,5.818,3.774,7.941
		c1.634,2.124,3.611,3.733,5.929,4.827c2.32,1.092,4.901,1.639,7.743,1.639c3.56,0,6.696-0.784,9.41-2.352
		c2.71-1.566,5.129-3.624,7.252-6.173l0.783,6.027c0.327,1.208,1.111,1.812,2.352,1.812h5.195V264.88h-8.722V292.373z
		 M892.844,323.195c-1.798,2.387-3.766,4.232-5.907,5.54c-2.138,1.307-4.647,1.959-7.522,1.959c-1.991,0-3.771-0.344-5.339-1.029
		c-1.569-0.685-2.892-1.771-3.971-3.26c-1.077-1.484-1.895-3.38-2.451-5.683c-0.556-2.303-0.83-5.073-0.83-8.306
		c0-6.11,1.24-10.812,3.723-14.114c2.482-3.299,6.027-4.95,10.634-4.95c2.354,0,4.478,0.434,6.371,1.302
		c1.892,0.864,3.658,2.393,5.293,4.582V323.195z"/>
	<path fill="#FFFFFF" d="M954.882,299.405c-1.047-2.76-2.491-5.078-4.336-6.96c-1.85-1.878-4.035-3.313-6.569-4.31
		c-2.528-0.996-5.284-1.496-8.255-1.496c-3.595,0-6.83,0.628-9.705,1.888c-2.874,1.256-5.309,2.988-7.301,5.193
		c-1.992,2.207-3.521,4.812-4.582,7.817c-1.063,3.006-1.591,6.24-1.591,9.703c0,4.28,0.585,8.07,1.764,11.369
		c1.176,3.299,2.818,6.069,4.923,8.307c2.108,2.237,4.606,3.936,7.5,5.096c2.892,1.158,6.049,1.738,9.48,1.738
		c1.797,0,3.61-0.156,5.439-0.463c1.832-0.311,3.602-0.778,5.318-1.396c1.715-0.623,3.323-1.415,4.824-2.378
		c1.505-0.963,2.794-2.1,3.873-3.407l-2.449-3.182c-0.392-0.556-0.947-0.835-1.666-0.835c-0.556,0-1.221,0.254-1.985,0.76
		c-0.77,0.505-1.723,1.053-2.865,1.642c-1.146,0.586-2.51,1.134-4.095,1.642c-1.582,0.505-3.47,0.76-5.659,0.76
		c-2.352,0-4.475-0.386-6.37-1.152c-1.894-0.769-3.526-1.929-4.899-3.481c-1.373-1.549-2.443-3.485-3.209-5.805
		c-0.77-2.321-1.203-5.049-1.302-8.184h33.176c0.817,0,1.373-0.229,1.667-0.688s0.441-1.369,0.441-2.743
		C956.449,305.309,955.926,302.165,954.882,299.405z M921.462,306.828c0.585-4.313,2.097-7.683,4.53-10.118
		c2.436-2.435,5.743-3.652,9.924-3.652c1.992,0,3.775,0.335,5.343,1.005c1.566,0.67,2.898,1.619,3.992,2.842
		c1.096,1.227,1.93,2.68,2.502,4.361c0.57,1.684,0.854,3.538,0.854,5.563H921.462z"/>
</g>
<g id="_x33_x" display="none">
	<g display="inline">
		<path d="M968.701,306.413c0-0.85,0.152-1.651,0.463-2.402c0.311-0.751,0.736-1.406,1.274-1.959
			c0.537-0.556,1.184-0.995,1.935-1.325c0.754-0.326,1.553-0.49,2.402-0.49s1.65,0.165,2.401,0.49
			c0.751,0.33,1.405,0.769,1.959,1.325c0.557,0.553,0.996,1.208,1.325,1.959c0.326,0.75,0.489,1.552,0.489,2.402
			c0,0.882-0.163,1.69-0.489,2.425c-0.329,0.736-0.769,1.379-1.325,1.935c-0.554,0.557-1.208,0.987-1.959,1.298
			c-0.751,0.311-1.552,0.466-2.401,0.466s-1.648-0.156-2.402-0.466c-0.751-0.312-1.397-0.741-1.935-1.298
			c-0.538-0.556-0.964-1.199-1.274-1.935C968.854,308.103,968.701,307.295,968.701,306.413z"/>
		<path d="M980.95,306.413c0-0.85,0.153-1.651,0.465-2.402c0.311-0.751,0.735-1.406,1.273-1.959
			c0.539-0.556,1.185-0.995,1.936-1.325c0.755-0.326,1.553-0.49,2.401-0.49c0.85,0,1.652,0.165,2.401,0.49
			c0.751,0.33,1.407,0.769,1.96,1.325c0.557,0.553,0.997,1.208,1.325,1.959c0.326,0.75,0.49,1.552,0.49,2.402
			c0,0.882-0.164,1.69-0.49,2.425c-0.328,0.736-0.769,1.379-1.325,1.935c-0.553,0.557-1.209,0.987-1.96,1.298
			c-0.749,0.311-1.552,0.466-2.401,0.466c-0.849,0-1.646-0.156-2.401-0.466c-0.751-0.312-1.396-0.741-1.936-1.298
			c-0.538-0.556-0.963-1.199-1.273-1.935C981.104,308.103,980.95,307.295,980.95,306.413z"/>
		<path d="M956.449,306.413c0-0.85,0.153-1.651,0.464-2.402c0.312-0.751,0.736-1.406,1.274-1.959
			c0.538-0.556,1.185-0.995,1.936-1.325c0.752-0.326,1.552-0.49,2.4-0.49c0.85,0,1.651,0.165,2.402,0.49
			c0.751,0.33,1.406,0.769,1.959,1.325c0.557,0.553,0.995,1.208,1.325,1.959c0.325,0.75,0.491,1.552,0.491,2.402
			c0,0.882-0.166,1.69-0.491,2.425c-0.33,0.736-0.769,1.379-1.325,1.935c-0.553,0.557-1.208,0.987-1.959,1.298
			c-0.751,0.311-1.553,0.466-2.402,0.466c-0.849,0-1.648-0.156-2.4-0.466c-0.751-0.312-1.397-0.741-1.936-1.298
			c-0.538-0.556-0.963-1.199-1.274-1.935C956.603,308.103,956.449,307.295,956.449,306.413z"/>
	</g>
	<g display="inline">
		<path d="M18.787,312.219c0-0.85,0.153-1.651,0.463-2.402c0.312-0.751,0.736-1.405,1.275-1.959
			c0.538-0.556,1.184-0.996,1.935-1.325c0.754-0.326,1.552-0.49,2.402-0.49s1.651,0.165,2.401,0.49
			c0.751,0.329,1.406,0.769,1.959,1.325c0.557,0.555,0.996,1.208,1.325,1.959c0.326,0.751,0.49,1.552,0.49,2.402
			c0,0.882-0.164,1.689-0.49,2.426c-0.329,0.735-0.769,1.378-1.325,1.935c-0.553,0.556-1.208,0.986-1.959,1.298
			c-0.75,0.311-1.552,0.466-2.401,0.466s-1.647-0.155-2.402-0.466c-0.75-0.312-1.396-0.742-1.935-1.298
			c-0.539-0.557-0.963-1.2-1.275-1.935C18.94,313.907,18.787,313.101,18.787,312.219z"/>
		<path d="M31.037,312.219c0-0.85,0.153-1.651,0.464-2.402c0.311-0.751,0.735-1.405,1.274-1.959
			c0.539-0.556,1.184-0.996,1.935-1.325c0.754-0.326,1.553-0.49,2.401-0.49c0.85,0,1.651,0.165,2.402,0.49
			c0.75,0.329,1.405,0.769,1.958,1.325c0.557,0.555,0.996,1.208,1.326,1.959c0.326,0.751,0.491,1.552,0.491,2.402
			c0,0.882-0.165,1.689-0.491,2.426c-0.33,0.735-0.769,1.378-1.326,1.935c-0.553,0.556-1.208,0.986-1.958,1.298
			c-0.751,0.311-1.553,0.466-2.402,0.466c-0.849,0-1.647-0.155-2.401-0.466c-0.751-0.312-1.396-0.742-1.935-1.298
			c-0.539-0.557-0.963-1.2-1.274-1.935C31.19,313.907,31.037,313.101,31.037,312.219z"/>
		<path d="M6.536,312.219c0-0.85,0.152-1.651,0.463-2.402c0.312-0.751,0.736-1.405,1.274-1.959c0.539-0.556,1.185-0.996,1.935-1.325
			c0.753-0.326,1.553-0.49,2.402-0.49c0.849,0,1.65,0.165,2.401,0.49c0.75,0.329,1.406,0.769,1.959,1.325
			c0.556,0.555,0.996,1.208,1.325,1.959c0.326,0.751,0.491,1.552,0.491,2.402c0,0.882-0.165,1.689-0.491,2.426
			c-0.329,0.735-0.769,1.378-1.325,1.935c-0.553,0.556-1.208,0.986-1.959,1.298c-0.751,0.311-1.553,0.466-2.401,0.466
			c-0.85,0-1.649-0.155-2.402-0.466c-0.75-0.312-1.396-0.742-1.935-1.298c-0.538-0.557-0.963-1.2-1.274-1.935
			C6.688,313.907,6.536,313.101,6.536,312.219z"/>
	</g>
	<g display="inline">
		<path d="M162.505,408.626c0.849,0,1.651,0.149,2.399,0.46c0.753,0.311,1.406,0.735,1.962,1.274
			c0.557,0.539,0.992,1.184,1.322,1.938c0.329,0.754,0.491,1.55,0.491,2.399s-0.162,1.65-0.491,2.404
			c-0.33,0.748-0.765,1.406-1.322,1.956c-0.556,0.556-1.208,1-1.962,1.328c-0.748,0.323-1.55,0.49-2.399,0.49
			c-0.885,0-1.693-0.167-2.429-0.49c-0.736-0.328-1.376-0.772-1.932-1.328c-0.557-0.55-0.987-1.208-1.298-1.956
			c-0.312-0.754-0.467-1.554-0.467-2.404s0.155-1.646,0.467-2.399c0.311-0.754,0.741-1.4,1.298-1.938
			c0.556-0.539,1.196-0.963,1.932-1.274C160.812,408.775,161.62,408.626,162.505,408.626z"/>
		<path d="M162.505,420.875c0.849,0,1.651,0.15,2.399,0.462c0.753,0.311,1.406,0.735,1.962,1.273
			c0.557,0.539,0.992,1.185,1.322,1.938c0.329,0.755,0.491,1.551,0.491,2.397c0,0.85-0.162,1.652-0.491,2.407
			c-0.33,0.747-0.765,1.405-1.322,1.955c-0.556,0.557-1.208,0.999-1.962,1.328c-0.748,0.323-1.55,0.49-2.399,0.49
			c-0.885,0-1.693-0.167-2.429-0.49c-0.736-0.329-1.376-0.771-1.932-1.328c-0.557-0.55-0.987-1.208-1.298-1.955
			c-0.312-0.755-0.467-1.558-0.467-2.407c0-0.847,0.155-1.643,0.467-2.397c0.311-0.754,0.741-1.399,1.298-1.938
			c0.556-0.538,1.196-0.963,1.932-1.273C160.812,421.026,161.62,420.875,162.505,420.875z"/>
		<path d="M162.505,396.374c0.849,0,1.651,0.15,2.399,0.461c0.753,0.311,1.406,0.735,1.962,1.274
			c0.557,0.539,0.992,1.184,1.322,1.938c0.329,0.754,0.491,1.55,0.491,2.398c0,0.85-0.162,1.651-0.491,2.405
			c-0.33,0.748-0.765,1.406-1.322,1.957c-0.556,0.556-1.208,0.999-1.962,1.328c-0.748,0.323-1.55,0.491-2.399,0.491
			c-0.885,0-1.693-0.167-2.429-0.491c-0.736-0.329-1.376-0.772-1.932-1.328c-0.557-0.551-0.987-1.209-1.298-1.957
			c-0.312-0.753-0.467-1.555-0.467-2.405c0-0.849,0.155-1.644,0.467-2.398c0.311-0.754,0.741-1.399,1.298-1.938
			c0.556-0.539,1.196-0.963,1.932-1.274C160.812,396.524,161.62,396.374,162.505,396.374z"/>
	</g>
	<g display="inline">
		<path d="M108.806,133.972c0.849,0,1.65,0.15,2.398,0.461c0.754,0.311,1.405,0.735,1.962,1.274
			c0.556,0.539,0.993,1.184,1.323,1.938c0.328,0.754,0.49,1.549,0.49,2.398c0,0.85-0.163,1.651-0.49,2.405
			c-0.33,0.748-0.767,1.406-1.323,1.956c-0.557,0.556-1.208,1-1.962,1.328c-0.748,0.324-1.549,0.49-2.398,0.49
			c-0.886,0-1.694-0.167-2.429-0.49c-0.735-0.329-1.375-0.772-1.932-1.328c-0.557-0.55-0.987-1.208-1.298-1.956
			c-0.311-0.754-0.467-1.555-0.467-2.405c0-0.849,0.156-1.644,0.467-2.398c0.311-0.754,0.742-1.399,1.298-1.938
			c0.556-0.539,1.196-0.963,1.932-1.274C107.112,134.122,107.92,133.972,108.806,133.972z"/>
		<path d="M108.806,146.223c0.849,0,1.65,0.15,2.398,0.461c0.754,0.311,1.405,0.735,1.962,1.274
			c0.556,0.539,0.993,1.184,1.323,1.938c0.328,0.754,0.49,1.55,0.49,2.399c0,0.85-0.163,1.651-0.49,2.404
			c-0.33,0.749-0.767,1.406-1.323,1.957c-0.557,0.556-1.208,0.999-1.962,1.328c-0.748,0.323-1.549,0.491-2.398,0.491
			c-0.886,0-1.694-0.168-2.429-0.491c-0.735-0.33-1.375-0.772-1.932-1.328c-0.557-0.551-0.987-1.208-1.298-1.957
			c-0.311-0.752-0.467-1.554-0.467-2.404c0-0.849,0.156-1.645,0.467-2.399c0.311-0.754,0.742-1.4,1.298-1.938
			c0.556-0.539,1.196-0.963,1.932-1.274S107.92,146.223,108.806,146.223z"/>
		<path d="M108.806,121.721c0.849,0,1.65,0.15,2.398,0.46c0.754,0.312,1.405,0.737,1.962,1.275c0.556,0.539,0.993,1.185,1.323,1.938
			c0.328,0.753,0.49,1.549,0.49,2.399s-0.163,1.651-0.49,2.404c-0.33,0.748-0.767,1.406-1.323,1.956
			c-0.557,0.557-1.208,0.999-1.962,1.328c-0.748,0.323-1.549,0.49-2.398,0.49c-0.886,0-1.694-0.167-2.429-0.49
			c-0.735-0.329-1.375-0.771-1.932-1.328c-0.557-0.55-0.987-1.208-1.298-1.956c-0.311-0.753-0.467-1.555-0.467-2.404
			s0.156-1.646,0.467-2.399s0.742-1.399,1.298-1.938c0.556-0.538,1.196-0.963,1.932-1.275
			C107.112,121.871,107.92,121.721,108.806,121.721z"/>
	</g>
</g>
</svg>
