<?xml version="1.0" encoding="UTF-8" standalone="no"?>
<svg
   xmlns:dc="http://purl.org/dc/elements/1.1/"
   xmlns:cc="http://creativecommons.org/ns#"
   xmlns:rdf="http://www.w3.org/1999/02/22-rdf-syntax-ns#"
   xmlns:svg="http://www.w3.org/2000/svg"
   xmlns="http://www.w3.org/2000/svg"
   viewBox="0 0 294.17334 294.17334"
   height="294.17334"
   width="294.17334"
   xml:space="preserve"
   id="svg2"
   version="1.1"><metadata
     id="metadata8"><rdf:RDF><cc:Work
         rdf:about=""><dc:format>image/svg+xml</dc:format><dc:type
           rdf:resource="http://purl.org/dc/dcmitype/StillImage" /></cc:Work></rdf:RDF></metadata><defs
     id="defs6" /><g
     transform="matrix(1.3333333,0,0,-1.3333333,0,294.17333)"
     id="g10"><g
       transform="scale(0.1)"
       id="g12"><path
         id="path14"
         style="fill:#5392d5;fill-opacity:1;fill-rule:nonzero;stroke:none"
         d="m 1570.37,807.398 c -68.25,51.411 -168.86,90.422 -275.4,131.731 -126.78,49.172 -270.48,104.891 -378.372,190.751 -122.239,97.28 -181.66,220.04 -181.66,375.3 0,139.26 57.816,258.37 167.191,344.46 122.651,96.53 308.401,147.55 537.171,147.55 63.22,0 123.63,-3.89 179.6,-11.58 4.94,-0.66 9.69,2.03 11.73,6.43 2.11,4.53 1.03,9.81 -2.68,13.15 -144.23,129.68 -330.58,201.1 -524.72,201.1 -209.832,0 -407.101,-81.7 -555.464,-230.06 -148.36,-148.35 -230.059,-345.59 -230.059,-555.38 0,-209.84 81.703,-407.09 230.059,-555.428 148.351,-148.32 345.617,-230.012 555.464,-230.012 169.52,0 331.03,53.219 467.07,153.899 2.85,2.113 4.55,5.48 4.57,9.031 0.01,3.539 -1.67,6.93 -4.5,9.058" /><path
         id="path16"
         style="fill:#5392d5;fill-opacity:1;fill-rule:nonzero;stroke:none"
         d="m 1885.3,1493.42 c -0.25,2.99 -1.72,5.8 -4.03,7.71 -163.92,136.05 -296.49,191.55 -457.58,191.55 -85.97,0 -151.87,-17.25 -195.89,-51.25 -38.12,-29.45 -58.27,-70.46 -58.27,-118.61 0,-134.91 164.87,-196.39 355.8,-267.59 98.38,-36.69 200.12,-74.64 293.52,-126.45 1.67,-0.93 3.57,-1.42 5.47,-1.42 1.31,0 2.6,0.23 3.83,0.67 3.06,1.1 5.5,3.48 6.69,6.51 35.66,91.39 53.75,187.71 53.75,286.31 0,23.15 -1.11,47.58 -3.29,72.57" /><path
         id="path18"
         style="fill:#5392d5;fill-opacity:1;fill-rule:nonzero;stroke:none"
         d="m 105.109,278.148 c -27.1832,11.883 -49.5465,22.563 -49.5465,40.391 0,12.473 14.082,24.352 37.7266,24.352 21.2769,0 39.5979,-5.34 58.5079,-13.661 5.316,-2.378 13.598,-2.98 17.73,5.34 l 9.461,19.012 c 3.539,7.117 0.586,15.438 -5.914,20.188 -13.59,8.921 -41.957,20.199 -79.7849,20.199 C 27.0977,393.969 0,353.582 0,319.141 0,274 34.7773,251.422 76.7383,232.422 c 37.8277,-17.223 58.5077,-29.102 58.5077,-47.5 0,-15.453 -12.992,-26.731 -36.0468,-26.731 -32.5078,0 -52.0117,11.278 -67.9687,20.188 -7.0899,4.152 -14.7735,2.371 -17.7305,-3.57 L 1.08984,149.27 c -2.95312,-5.938 0.59375,-11.282 4.72657,-14.239 15.37109,-10.699 46.69529,-27.922 89.83589,-27.922 60.8787,0 97.5197,37.411 97.5197,80.172 0,51.078 -37.828,69.489 -88.063,90.867" /><path
         id="path20"
         style="fill:#5392d5;fill-opacity:1;fill-rule:nonzero;stroke:none"
         d="m 1660.75,161 c -8.64,-14.262 -39.51,-10.691 -66.01,-10.141 -29.61,0.61 -44.43,11.051 -44.43,36.473 0,29.77 25.29,47.117 58.61,47.117 25.91,0 48.13,-7.437 51.83,-9.91 z m 47.28,-50.5 c 8.17,0.922 13.8,6.961 13.8,14.398 v 139.321 c 0,71.293 -8.63,126.48 -99.95,126.48 -52.44,0 -93.16,-14.258 -98.1,-16.129 -6.79,-2.468 -11.1,-6.82 -9.25,-16.73 l 5.55,-23.57 c 1.85,-8.051 7.4,-13.641 16.04,-11.77 14.81,4.332 46.89,13.641 79.59,13.641 35.78,0 46.89,-20.469 45.66,-65.719 0,0 -27.76,8.68 -57.38,8.68 -73.42,0 -114.15,-39.68 -114.15,-92.383 0,-59.508 37.59,-79.66 91.26,-79.66 43.81,0 88.88,0.531 107.61,1.742 l 19.32,1.699" /><path
         id="path22"
         style="fill:#5392d5;fill-opacity:1;fill-rule:nonzero;stroke:none"
         d="m 2173.85,454.199 c 15.07,0 27.34,-12.469 27.34,-27.75 0,-15.25 -12.27,-27.738 -27.34,-27.738 -15.06,0 -27.29,12.488 -27.29,27.738 0,15.281 12.23,27.75 27.29,27.75 z m 0,-60.23 c 17.94,0 32.44,14.531 32.44,32.48 0,17.973 -14.5,32.5 -32.44,32.5 -17.93,0 -32.45,-14.527 -32.45,-32.5 0,-17.949 14.52,-32.48 32.45,-32.48" /><path
         id="path24"
         style="fill:#5392d5;fill-opacity:1;fill-rule:nonzero;stroke:none"
         d="m 2166.85,438.34 h 8.33 c 3.03,0 5.71,-2.531 5.71,-5.59 0,-3.25 -2.68,-5.828 -5.71,-5.828 h -8.33 z m -4.01,-28.328 h 3.04 c 0.45,0 0.88,0.429 0.88,0.886 v 11.981 h 7.06 l 6.13,-12.258 c 0.18,-0.383 0.47,-0.609 0.98,-0.609 h 3.51 c 0.79,0 1.13,0.75 0.79,1.359 l -6.41,11.938 c 4.07,1.64 6.93,5.222 6.93,9.543 0,5.578 -4.59,10.058 -10.2,10.058 h -12.71 c -0.52,0 -0.9,-0.43 -0.9,-0.898 v -31.114 c 0,-0.457 0.38,-0.886 0.9,-0.886" /><path
         id="path26"
         style="fill:#5392d5;fill-opacity:1;fill-rule:nonzero;stroke:none"
         d="m 374.734,393.969 c -43.14,0 -72.695,-23.75 -79.195,-28.52 v 122.52 c 0,6.531 -6.504,13.07 -13.004,13.07 h -33.094 c -7.093,0 -13.003,-6.539 -13.003,-13.07 V 120.18 c 0,-7.129 5.91,-13.071 13.003,-13.071 h 32.5 c 8.282,0 13.598,5.34 13.598,13.071 v 177.57 c 5.91,11.879 29.555,39.801 71.512,39.801 35.461,0 54.375,-26.731 54.375,-71.871 V 120.129 c 0,-7.129 5.91,-13.07 13.004,-13.07 h 33.097 c 6.496,0 12.996,5.941 12.996,13.07 v 144.359 c 0,74.832 -28.367,129.481 -105.789,129.481" /><path
         id="path28"
         style="fill:#5392d5;fill-opacity:1;fill-rule:nonzero;stroke:none"
         d="m 1010,233.18 c -1.22,-52.821 -16.523,-76.18 -60.785,-78.621 -21.895,-1.2 -73.613,4.902 -73.613,4.902 -2.137,0.711 -3.606,1.621 -3.606,3.621 l -0.047,107.078 v 60.699 c 0,1.629 1.223,3 2.832,3.18 6.082,0.66 28.438,7.852 60.66,7.852 53.903,0 72.929,-7.961 74.659,-76.512 0.09,-9.109 0.14,-21.777 -0.1,-32.199 z m 57.09,28.39 c -3.28,93.239 -42.12,132.399 -131.649,132.399 -43.007,0 -94.257,-12.969 -101.828,-16.258 -9.297,-4.051 -16.16,-8.84 -16.16,-15.379 V 356.891 336.969 272.551 263.789 13.0586 C 817.453,5.92969 823.363,0 830.457,0 h 27.426 c 8.863,0 14.191,5.33984 14.191,13.0586 l -0.043,98.6914 c 8.321,-2.16 50.746,-5.801 86.192,-4.68 63.187,2 105.627,48.102 109.167,125.961 0.48,10.629 0.4,25.34 -0.27,34.93 l -0.03,-6.391" /><path
         id="path30"
         style="fill:#5392d5;fill-opacity:1;fill-rule:nonzero;stroke:none"
         d="m 1458.54,388.031 h -24.82 c -7.1,0 -17.14,0 -20.69,-8.32 L 1369.3,221.73 h -1.19 l -73.28,165.7 c -1.18,3.558 -5.32,6.539 -11.82,6.539 h -4.14 c -5.32,0 -9.46,-2.981 -11.23,-6.539 l -73.88,-165.098 h -1.17 l -44.92,157.379 c -1.19,5.34 -7.1,8.32 -11.82,8.32 h -35.46 c -9.46,0 -13.6,-7.133 -9.46,-15.449 l 79.79,-258.344 c 1.18,-4.148 5.32,-7.129 11.22,-7.129 h 3.55 c 5.91,0 9.46,2.981 10.64,6.532 l 83.92,186.488 h 1.19 l 83.33,-186.488 c 1.77,-3.551 5.91,-6.532 11.82,-6.532 h 2.37 c 5.9,0 11.22,2.981 12.41,7.129 l 78.01,258.344 c 4.14,8.316 -1.19,15.449 -10.64,15.449" /><path
         id="path32"
         style="fill:#5392d5;fill-opacity:1;fill-rule:nonzero;stroke:none"
         d="m 1894.52,390.699 c -1.44,0 -2.8,-0.117 -4.21,-0.168 -2.39,0.071 -4.73,0.168 -7.23,0.168 -14.17,0 -27.78,-0.437 -40.48,-1.109 v 0.019 c -24.53,-1.007 -39.03,-2.839 -49.38,-4.019 0,0 -6.6,-0.621 -14.33,-1.649 -5.19,-0.66 -8.96,-2.82 -11.25,-5.781 -1.58,-1.691 -2.55,-3.859 -2.55,-6.461 v -0.929 -5.438 -19.922 -55.23 -170 c 0,-7.129 5.91,-13.071 13.01,-13.071 h 27.18 c 11.23,0 18.91,1.192 18.91,13.071 v 170 0 39 c 0,1.629 2.57,3.691 3.96,4.531 6.69,4.008 22.71,6.918 54.93,6.918 3.14,0 5.18,-0.027 7.5,-0.141 7.4,-0.726 19.06,-2.988 22.86,-5.156 5.91,-2.98 13,-1.191 16.55,6.52 l 14.18,23.308 c 8.86,18.41 -23.64,25.539 -49.65,25.539" /><path
         id="path34"
         style="fill:#5392d5;fill-opacity:1;fill-rule:nonzero;stroke:none"
         d="m 2007.13,281.129 c 4.13,34.441 30.14,62.359 73.28,62.359 40.19,0 66.19,-29.109 67.38,-62.359 z m 74.46,112.84 c -82.15,0 -135.93,-65.93 -135.93,-143.141 0,-78.387 53.78,-143.719 136.53,-143.719 45.5,0 81.55,16.621 101.06,33.86 8.27,7.133 5.91,12.472 1.18,18.41 l -15.96,24.941 c -4.73,7.129 -10.04,5.34 -15.95,1.192 -16.55,-11.883 -35.46,-23.172 -66.79,-23.172 -47.87,0 -80.97,38.012 -81.56,74.832 h 188.54 c 5.9,0 11.81,4.758 12.41,11.887 0.59,4.75 1.17,14.242 1.17,19 0,73.043 -53.77,125.91 -124.7,125.91" /><path
         id="path36"
         style="fill:#5392d5;fill-opacity:1;fill-rule:nonzero;stroke:none"
         d="m 647.477,154.41 c -49.332,0 -74.149,41.961 -74.149,93.719 0,51.769 24.813,93.73 74.149,93.73 49.336,0 74.199,-41.961 74.199,-93.73 0,-51.758 -24.871,-93.719 -74.199,-93.719 z m 122.57,154.711 c -6.156,17.68 -14.801,32.828 -25.91,45.438 -11.125,12.613 -24.379,22.332 -39.77,29.16 -15.394,6.832 -37.25,10.25 -55.379,10.25 -18.136,0 -39.925,-3.418 -55.32,-10.25 -15.398,-6.828 -28.656,-16.547 -39.77,-29.16 -11.121,-12.61 -19.753,-27.758 -25.914,-45.438 -6.16,-17.691 -9.238,-37.223 -9.238,-58.582 0,-21.719 3.078,-41.34 9.238,-58.84 6.161,-17.519 14.793,-32.578 25.914,-45.187 11.114,-12.614 24.372,-22.332 39.77,-29.16 15.395,-6.832 37.184,-10.243 55.32,-10.243 18.129,0 39.985,3.411 55.379,10.243 15.391,6.828 28.645,16.546 39.77,29.16 11.109,12.609 19.754,27.668 25.91,45.187 6.16,17.5 9.234,37.121 9.234,58.84 0,21.359 -3.074,40.891 -9.234,58.582" /></g></g></svg>