<?xml version="1.0" encoding="UTF-8" standalone="no"?>
<svg
   xmlns:dc="http://purl.org/dc/elements/1.1/"
   xmlns:cc="http://creativecommons.org/ns#"
   xmlns:rdf="http://www.w3.org/1999/02/22-rdf-syntax-ns#"
   xmlns:svg="http://www.w3.org/2000/svg"
   xmlns="http://www.w3.org/2000/svg"
   viewBox="0 0 753.78668 118.66667"
   height="118.66667"
   width="753.78668"
   xml:space="preserve"
   id="svg2"
   version="1.1"><metadata
     id="metadata8"><rdf:RDF><cc:Work
         rdf:about=""><dc:format>image/svg+xml</dc:format><dc:type
           rdf:resource="http://purl.org/dc/dcmitype/StillImage" /></cc:Work></rdf:RDF></metadata><defs
     id="defs6" /><g
     transform="matrix(1.3333333,0,0,-1.3333333,0,118.66667)"
     id="g10"><g
       transform="scale(0.1)"
       id="g12"><path
         id="path14"
         style="fill:#30642b;fill-opacity:1;fill-rule:nonzero;stroke:none"
         d="M 5540.2,586.617 H 5070.37 L 4898.05,208.223 h 130.82 l 147,323.535 h 296.1 c 31.42,0 47.13,-11.488 47.13,-34.465 0,-7.031 -1.64,-14.066 -4.93,-21.102 L 5391.79,208.223 h 128.71 l 128.71,283.445 c 2.82,6.094 4.22,13.828 4.22,23.211 0,23.441 -13.36,41.961 -40.09,55.559 -21.57,10.789 -45.95,16.179 -73.14,16.179 z m -513.44,60.488 37.98,82.993 -144.18,-28.133 -37.28,-82.293 143.48,27.433 z M 4826.9,208.223 5004.61,598.457 4860.66,570.91 4695.49,208.223 h 131.41 z m -613.89,62.597 c -29.54,2.813 -42.67,12.895 -39.39,30.243 l 80.18,175.128 c 7.5,16.414 20.04,29.778 37.63,40.09 17.58,10.317 35.75,15.477 54.5,15.477 h 293.3 L 4520.36,270.82 h -307.35 z m 647.77,459.278 -144.19,-28.25 -52.04,-115.231 h -336.2 c -30.47,0 -63.06,-7.269 -97.76,-21.804 -42.67,-17.817 -72.91,-42.2 -90.73,-73.145 l -104.8,-229.289 c -2.81,-36.106 26.49,-54.156 87.92,-54.156 h 500.77 l 237.03,521.875 z M 3277.57,208.223 h 664.65 l 172.32,379.097 -130.82,-0.703 -147,-322.832 H 3622.91 L 3769.9,587.32 3639.08,586.617 3492.09,263.785 h -146.3 c -31.41,0 -47.12,11.488 -47.12,34.582 0,7.031 1.64,14.067 4.92,21.098 l 122.38,267.855 -128.71,-0.703 -128.71,-282.742 c -2.81,-7.973 -4.22,-15.707 -4.22,-23.211 0,-23.914 13.6,-42.668 40.8,-56.266 22.03,-10.785 46.18,-16.175 72.44,-16.175 z m -322.83,55.562 h -296.81 c -30.94,0 -46.42,11.488 -46.42,34.461 0,7.035 1.64,14.07 4.92,21.102 l 97.06,212.41 h 299.62 c 29.54,0 44.32,-11.024 44.32,-33.059 0,-6.566 -1.88,-14.066 -5.63,-22.508 l -97.06,-212.406 z m 126.6,323.535 H 2611.51 L 2483.5,305.281 c -2.81,-6.093 -4.22,-13.832 -4.22,-23.207 0,-23.445 13.13,-42.203 39.39,-56.269 21.57,-11.719 45.25,-17.582 71.04,-17.582 h 468.42 l 128.71,283.445 c 2.81,8.437 4.22,16.41 4.22,23.91 0,23.445 -13.13,41.965 -39.39,55.563 -21.1,10.789 -44.54,16.179 -70.33,16.179 z m -669.58,-0.703 H 2055.88 L 1882.86,208.223 h 129.41 l 147,323.535 h 183.57 c 31.88,0 47.82,-11.488 47.82,-34.465 0,-7.031 -1.64,-14.066 -4.92,-21.102 l -17.58,-38.683 h 127.3 l 24.62,54.16 c 2.81,7.969 4.22,15.707 4.22,23.211 0,23.441 -13.37,41.961 -40.09,55.559 -21.57,10.789 -45.72,16.179 -72.45,16.179 z M 1413.03,263.082 c -31.42,0 -47.12,11.723 -47.12,35.164 0,5.629 1.87,12.664 5.62,21.102 l 96.36,212.41 h 299.62 c 30.95,0 46.42,-11.254 46.42,-33.762 0,-6.098 -1.87,-13.363 -5.63,-21.805 l -17.58,-38.683 h 126.6 l 24.62,54.16 c 2.81,8.437 4.22,16.41 4.22,23.91 0,23.445 -12.9,41.735 -38.69,54.86 -21.1,10.789 -44.78,16.179 -71.03,16.179 H 1366.61 L 1238.6,305.281 c -2.81,-7.968 -4.22,-15.707 -4.22,-23.207 0,-23.914 13.13,-42.906 39.39,-56.972 21.1,-11.254 44.78,-16.879 71.04,-16.879 h 467.71 l 25.32,54.859 h -424.81 v 0" /><path
         id="path16"
         style="fill:#30642b;fill-opacity:1;fill-rule:evenodd;stroke:none"
         d="m 1255.42,787.039 c 0,0 -857.705,93.816 -944.775,-288.094 C 185.227,-51.5156 726.051,74.6406 726.051,74.6406 c 0,0 -734.83225,-315.0426 -655.1604,416.3394 C 124.816,986.402 1091.16,866.879 1255.42,787.039 v 0" /><path
         id="path18"
         style="fill:#30642b;fill-opacity:1;fill-rule:evenodd;stroke:none"
         d="m 1180.77,589.461 c 0,0 -388.715,4.469 -412.204,-164.957 -33.804,-244.125 203.77,-166.512 203.77,-166.512 0,0 -316.902,-167.7615 -311.051,152.914 3.965,217.262 442.535,206.258 519.485,178.555 v 0" /><path
         id="path20"
         style="fill:#30642b;fill-opacity:1;fill-rule:evenodd;stroke:none"
         d="m 1188.39,689.492 c 0,0 -588.652,6.715 -624.14,-249.695 -51.203,-369.7072 308.469,-252.215 308.469,-252.215 0,0 -479.805,-254.0039 -470.926,231.637 5.984,328.879 670.067,312.25 786.597,270.273 v 0" /><path
         id="path22"
         style="fill:#acd11c;fill-opacity:1;fill-rule:evenodd;stroke:none"
         d="m 969.773,257.125 c 0,0 -310.597,-164.0625 -337.113,116.805 38.391,-5.739 73.77,-9.985 107.91,-10.133 17.305,-205.645 229.203,-106.672 229.203,-106.672 v 0" /><path
         id="path24"
         style="fill:#acd11c;fill-opacity:1;fill-rule:evenodd;stroke:none"
         d="m 751.391,457.742 c -2.797,-10.781 -8.477,-35.429 -10.125,-44.922 -66.203,7.496 -38.223,0.567 -109.688,12.438 0.496,4.488 2.27,27.695 3.149,32.293 37.992,196.629 474.513,159.523 546.043,131.91 0,0 -386.508,31.855 -429.379,-131.719 v 0" /><path
         id="path26"
         style="fill:#acd11c;fill-opacity:1;fill-rule:evenodd;stroke:none"
         d="m 868.977,186.313 c 0,0 -470.469,-248.4497 -510.465,176.898 58.047,-8.734 111.59,-15.223 163.336,-15.352 C 547.992,36.5234 868.977,186.313 868.977,186.313 v 0" /><path
         id="path28"
         style="fill:#acd11c;fill-opacity:1;fill-rule:evenodd;stroke:none"
         d="m 538.301,490.016 c -4.235,-16.192 -12.93,-53.516 -15.344,-68.02 -100.266,11.359 -94.176,8.457 -166.137,18.895 0.672,6.8 3.477,41.89 4.743,48.886 57.574,297.782 718.567,241.536 826.827,199.707 0,0.008 -585.261,48.231 -650.089,-199.468 v 0" /><path
         id="path30"
         style="fill:#acd11c;fill-opacity:1;fill-rule:evenodd;stroke:none"
         d="M 720.262,73.1797 C 720.262,73.1797 0,-234.734 0,412.66 83.5234,391.215 160.777,373.934 236.176,366.27 231.57,-107.156 720.262,73.1797 720.262,73.1797 v 0" /><path
         id="path32"
         style="fill:#acd11c;fill-opacity:1;fill-rule:evenodd;stroke:none"
         d="M 279.707,578.398 C 271.281,554.629 253.543,499.477 247.965,478.035 103.305,509.398 141.059,496.066 8.23047,530.129 10.2461,540.277 19.0625,592.895 21.9414,603.125 146.781,1044.25 1103.33,865.563 1255.43,787.047 1255.42,787.039 408.27,942.973 279.707,578.398 v 0" /></g></g></svg>